<svg t="1702732566403" class="icon" viewBox="0 0 1024 1024" version="1.1" xmlns="http://www.w3.org/2000/svg" p-id="3016" width="200" height="200"><path d="M717.730909 890.647273h-3.025454C367.243636 861.090909 122.414545 613.003636 119.389091 287.650909v-6.050909a180.363636 180.363636 0 0 1 54.225454-129.396364 182.923636 182.923636 0 0 1 261.585455 4.421819 179.432727 179.432727 0 0 1 4.654545 245.76 518.283636 518.283636 0 0 0 189.672728 186.181818 181.527273 181.527273 0 0 1 97.745454-30.021818 186.181818 186.181818 0 0 1 183.389091 188.276363 34.909091 34.909091 0 0 1-69.818182 0A116.363636 116.363636 0 0 0 727.272727 628.363636a111.476364 111.476364 0 0 0-72.843636 27.229091 35.141818 35.141818 0 0 1-41.192727 3.490909l-8.145455-4.887272-9.309091-5.585455a589.498182 589.498182 0 0 1-219.229091-217.134545c-3.490909-6.283636-6.749091-12.101818-10.007272-16.989091a35.141818 35.141818 0 0 1 8.145454-46.545455 111.709091 111.709091 0 0 0 42.356364-84.014545 110.312727 110.312727 0 0 0-31.650909-79.825455 112.872727 112.872727 0 0 0-162.909091-3.258182 111.010909 111.010909 0 0 0-33.512728 79.592728v5.818181C191.767273 575.069091 410.530909 794.530909 721.454545 820.829091a34.909091 34.909091 0 0 1-3.025454 69.818182z" p-id="3017"></path></svg>